<svg width="32" height="32" viewBox="0 0 32 32">
    <path
        d="M8.82382979,15.5948936 C8.82382979,11.6051064 10.8391489,8.09191489 13.9029787,6.00851064 L10.587234,4.12255319 C10.3012766,3.95914894 9.95404255,3.96595745 9.66808511,4.1293617 L0.456170213,9.52851064 C0.170212766,9.69191489 0,9.99829787 0,10.3251064 L0,21.0076596 C0,21.3344681 0.177021277,21.6340426 0.462978723,21.7974468 L9.81787234,27.0740426 C10.1038298,27.2306383 10.4578723,27.2306383 10.7438298,27.0604255 L13.9234043,25.1948936 C10.8459574,23.1114894 8.82382979,19.5914894 8.82382979,15.5948936 Z"
        fill="#E30613" fill-rule="nonzero"></path>
    <path
        d="M20.4119149,4.00680851 C18.0017021,4.00680851 15.7617021,4.74212766 13.9029787,6.00851064 L19.8740426,9.39914894 C20.16,9.56255319 20.3370213,9.86212766 20.3370213,10.1889362 L20.4119149,20.8646809 C20.4119149,21.1914894 20.2417021,21.4978723 19.9557447,21.6612766 L13.9234043,25.1948936 C15.7753191,26.4476596 18.0085106,27.1829787 20.4119149,27.1829787 C26.8119149,27.1829787 32,21.9948936 32,15.5948936 C32,9.19489362 26.8119149,4.00680851 20.4119149,4.00680851 Z"
        fill="#009FE3" fill-rule="nonzero"></path>
    <path
        d="M20.4119149,20.8646809 L20.3370213,10.1889362 C20.3370213,9.86212766 20.16,9.56255319 19.8740426,9.39914894 L13.9029787,6.00851064 C10.8391489,8.09191489 8.82382979,11.6119149 8.82382979,15.5948936 C8.82382979,19.5914894 10.8459574,23.1114894 13.9234043,25.1948936 L19.9557447,21.6612766 C20.2417021,21.4978723 20.4119149,21.1914894 20.4119149,20.8646809 L20.4119149,20.8646809 Z"
        fill="#000411" fill-rule="nonzero"></path>
</svg>